<?xml version="1.0" encoding="utf-8"?>
<!-- Generator: Adobe Illustrator 16.0.0, SVG Export Plug-In . SVG Version: 6.00 Build 0)  -->
<!DOCTYPE svg PUBLIC "-//W3C//DTD SVG 1.1//EN" "http://www.w3.org/Graphics/SVG/1.1/DTD/svg11.dtd">
<svg version="1.1" id="Layer_1" xmlns="http://www.w3.org/2000/svg" xmlns:xlink="http://www.w3.org/1999/xlink" x="0px" y="0px"
	 width="600px" height="600px" viewBox="0 0 600 600" style="enable-background:new 0 0 600 600;" xml:space="preserve">
<style type="text/css">
<![CDATA[
	.st0{fill:#E59E24;}
	.st1{fill:url(#SVGID_1_);}
	.st2{fill:url(#SVGID_2_);}
	.st3{fill:url(#SVGID_3_);}
	.st4{fill:url(#SVGID_4_);}
	.st5{fill:url(#SVGID_5_);}
	.st6{fill:url(#SVGID_6_);}
	.st7{fill:url(#SVGID_7_);}
	.st8{fill:url(#SVGID_8_);}
	.st9{fill:url(#SVGID_9_);}
	.st10{fill:#FFFFFF;}
	.st11{fill:#33469D;}
	.st12{fill:url(#SVGID_10_);}
	.st13{fill:url(#SVGID_11_);}
	.st14{fill:url(#SVGID_12_);}
	.st15{fill:url(#SVGID_13_);}
	.st16{fill:url(#SVGID_14_);}
	.st17{fill:url(#SVGID_15_);}
	.st18{fill:url(#SVGID_16_);}
	.st19{fill:url(#SVGID_17_);}
	.st20{fill:url(#SVGID_18_);}
	.st21{fill:none;stroke:#33469D;stroke-width:1.4173;stroke-miterlimit:10;}
]]>
</style>
<g>
	<path class="st10" d="M578.9,537.6c0,23-18.6,41.6-41.6,41.6H63.2c-23,0-41.6-18.6-41.6-41.6V63.4c0-23,18.6-41.6,41.6-41.6h474.2
		c23,0,41.6,18.6,41.6,41.6V537.6z"/>
	<path class="st0" d="M537.4,580.4H63.2c-23.6,0-42.9-19.2-42.9-42.9V63.4c0-23.6,19.2-42.9,42.9-42.9h474.2
		c23.6,0,42.9,19.2,42.9,42.9v474.2C580.2,561.2,561,580.4,537.4,580.4z M63.2,23.1c-22.2,0-40.3,18.1-40.3,40.3v474.2
		c0,22.2,18.1,40.3,40.3,40.3h474.2c22.2,0,40.3-18.1,40.3-40.3V63.4c0-22.2-18.1-40.3-40.3-40.3H63.2z"/>
</g>
<path class="st11" d="M87.8,357c-1.2,6.2-1.3,12.6,0,19.1V357z"/>
<g>
	<path class="st11" d="M283.5,363.1c-2.4,0-4.8-0.3-7.3-0.9c-23-5.6-35.9-19.6-40.3-30.9c-2.2-5.5-2.2-9.4-0.1-11.9
		c2.4-2.9,6.4-2.7,8.6-2.3l-0.8,4.4c-1.6-0.3-3.6-0.2-4.4,0.8c-0.4,0.5-1.2,2.4,0.8,7.5c3.8,9.7,15.9,22.9,37.2,28.2
		c7.3,1.8,14.2,0.4,19.6-3.8c7.7-6,11.9-17.6,11.9-32.6h4.5c0,21.1-7.4,31.3-13.6,36.2C295,361.2,289.4,363.1,283.5,363.1z"/>
</g>
<path class="st21" d="M227.7,339.7"/>
<linearGradient id="SVGID_1_" gradientUnits="userSpaceOnUse" x1="612.7559" y1="286.123" x2="608.2692" y2="327.7264" gradientTransform="matrix(-0.988 0.1542 0.1542 0.988 711.5972 -69.2725)">
	<stop  offset="0" style="stop-color:#70CEE9"/>
	<stop  offset="0.2485" style="stop-color:#6FCAE7"/>
	<stop  offset="0.4356" style="stop-color:#68C2E3"/>
	<stop  offset="0.6027" style="stop-color:#5CB6DD"/>
	<stop  offset="0.758" style="stop-color:#4CA5D5"/>
	<stop  offset="0.9038" style="stop-color:#3491CB"/>
	<stop  offset="1" style="stop-color:#1C82C3"/>
	<stop  offset="1" style="stop-color:#33469D"/>
</linearGradient>
<path class="st1" d="M162.6,319.1c8.8,4.4,13,9.1,14.6,17.6c1,5.7-1.6,10.7-7.4,11.4c-6.1,0.7-10-4.8-12.4-9.7
	c-3.9-7.7-14.3-21-24.3-23.3C142.7,314.4,153.8,314.6,162.6,319.1z"/>
<linearGradient id="SVGID_2_" gradientUnits="userSpaceOnUse" x1="144.4492" y1="328.7002" x2="175.8306" y2="328.7002">
	<stop  offset="0" style="stop-color:#FFFFFF;stop-opacity:0.8067"/>
	<stop  offset="1" style="stop-color:#FFFFFF;stop-opacity:0.1"/>
</linearGradient>
<path class="st2" d="M175.5,341.4c-2.6-4.9-6.4-11.6-13.3-16.5c-6.9-4.9-13-7.1-17.8-8.9c6.9,0.4,12.9,1.4,17.6,3.8
	c8.7,4.4,12.2,9.2,13.6,17C175.9,338.4,175.9,340,175.5,341.4z"/>
<g>
	<path class="st11" d="M229.4,314.8c-28.1,0-50,22.9-50,51.5c0,7.1,1.3,13.8,3.7,19.9c-3.5,6.8-10.1,16.3-21.7,22.2
		c-6.4,3.3-13.3,5-20.3,5.4v0c-0.5,0-1,0.1-1.6,0.1c-25.6,0-48.5-20-48.5-47.8c0-26.9,21.5-46.2,47.3-46.8c-2.4-1.7-4.8-3-7.2-3.8
		c-24.9,3.7-44.3,23.7-44.3,50.6c0,30.3,24.6,52.2,52.7,52.2c0.6,0,1.2-0.1,1.8-0.1v0c7.5-0.3,15.1-2.2,22.1-5.8
		c11-5.6,17.8-14.2,21.8-21.2c8.3,16.3,24.8,27.2,44.1,27.2c28.1,0,50-22.9,50-52C279.4,337.7,257.5,314.8,229.4,314.8z
		 M229.4,413.8c-25.6,0-45.6-20.9-45.6-47.5c0-26.1,20-47.1,45.6-47.1c25.6,0,45.6,20.9,45.6,47.1C275,392.9,255,413.8,229.4,413.8z
		"/>
	<path class="st11" d="M363.5,319.2c0,0-6.2-4.4-18.2-4.4c-16.3,0-27.1,10.3-32,17.2V319c0-1-0.7-1.7-1.7-1.7h-1
		c-1,0-1.7,0.7-1.7,1.7v95.1c0,1,0.7,1.7,1.7,1.7h1c1,0,1.7-0.7,1.7-1.7v-74.7c1.7-3,12.3-20.2,32-20.2c10.1,0,15.8,3.9,15.8,3.9
		c1,0.5,2,0,2.2-0.5l0.7-1.2C364.4,320.7,364.2,319.7,363.5,319.2z"/>
	<path class="st11" d="M425.6,322.7l0.7-1.2c0.5-0.7,0.2-1.7-0.5-2.2c0,0-6.2-4.4-18.2-4.4c-16.3,0-27.1,10.3-32,17.2V319
		c0-1-0.7-1.7-1.7-1.7h-1c-1,0-1.7,0.7-1.7,1.7v95.1c0,1,0.7,1.7,1.7,1.7h1c1,0,1.7-0.7,1.7-1.7v-74.7c1.7-3,12.3-20.2,32-20.2
		c10.1,0,15.8,3.9,15.8,3.9C424.3,323.6,425.3,323.1,425.6,322.7z"/>
	<path class="st11" d="M499.7,334.5c-0.4-1.7-0.9-3.8-2.3-5.7c-3.6-5.3-7.5-7.8-11.5-9.6c-3.2-1.6-8-2.7-10.7-3.3
		c-2.6-0.5-7.3-1.1-10.5-1.1c-30.1,0-48.5,22.7-48.5,51.2c0,8.4,1.6,16.3,4.5,23.3c0.3,0.9,0.6,1.7,1,2.6l0.1,0
		c6.9,14.3,19.8,24.3,37.2,26.1c2.3-1,4.6-2.4,6.8-4.2c-0.4,0-0.7,0.1-1.1,0.1c-19.3,0-33.1-10.4-39.6-25.7c-1.5-4-1.3-7.5,0.4-10.7
		c3.6-6.6,14.6-11.6,30.2-13.9l3.2-0.4c14.1-1.9,31.6-4.4,38.6-14.4C500.1,344.8,500.9,340,499.7,334.5z M493.6,346.2
		c-5.8,8.4-22.9,10.7-35.4,12.5l-3.2,0.4c-10,1.4-27.6,5.4-33.5,16.1c-0.3-2.3-0.6-4.6-0.6-7V364c1-25.1,17-44.8,43.9-44.8
		c7.9,0,13.8,2,18.8,4.2c2.8,1.3,5.4,3,7.7,4.9l0,0c2.6,2.5,3.6,5.1,4.1,7.2C496.2,339.7,495.7,343.2,493.6,346.2z"/>
</g>
<linearGradient id="SVGID_3_" gradientUnits="userSpaceOnUse" x1="250.6123" y1="95.7773" x2="238.9957" y2="69.4734" gradientTransform="matrix(-0.9882 -0.1535 0.1535 -0.9882 711.4842 519.9864)">
	<stop  offset="0" style="stop-color:#70CEE9"/>
	<stop  offset="0.2485" style="stop-color:#6FCAE7"/>
	<stop  offset="0.4356" style="stop-color:#68C2E3"/>
	<stop  offset="0.6027" style="stop-color:#5CB6DD"/>
	<stop  offset="0.758" style="stop-color:#4CA5D5"/>
	<stop  offset="0.9038" style="stop-color:#3491CB"/>
	<stop  offset="1" style="stop-color:#1C82C3"/>
	<stop  offset="1" style="stop-color:#33469D"/>
</linearGradient>
<path class="st3" d="M490.8,414.1c8.8-4.4,13-9.1,14.6-17.6c1-5.7-1.6-11.9-7.4-12.6c-6.1-0.7-10,5.9-12.4,10.9
	c-3.9,7.7-14.3,21-24.3,23.3C471,418.9,482,418.6,490.8,414.1z"/>
<linearGradient id="SVGID_4_" gradientUnits="userSpaceOnUse" x1="495.0156" y1="395.1152" x2="495.0156" y2="385.2427">
	<stop  offset="0" style="stop-color:#FFFFFF;stop-opacity:0.8067"/>
	<stop  offset="1" style="stop-color:#FFFFFF;stop-opacity:0.1"/>
</linearGradient>
<path class="st4" d="M486.7,394.5c2.4-4.7,5.7-9.8,10.4-9.8c0.3,0,0.5,0,0.8,0.1c2.8,0.3,4.5,2.1,5.4,3.7c-0.9-0.2-1.8-0.3-2.7-0.3
	C495.3,388.2,490.5,391.2,486.7,394.5z"/>
<g>
	<path class="st0" d="M128,510.9v-64.7H149c18.7,0,30.4,12.4,30.4,32.3c0,19.7-11.9,32.4-30.4,32.4H128z M149,508.2
		c17,0,27.3-11.1,27.7-29.8c-0.3-18.5-10.6-29.6-27.7-29.6h-18.3v59.4H149z"/>
	<path class="st0" d="M128.5,510.5v-63.9H149c20.1,0,29.9,14.2,29.9,31.8c0,19.3-11.6,32-29.9,32H128.5z M149,448.4h-18.7v60.3H149
		c18.5,0,27.8-12.8,28.2-30.2C176.9,460.5,167,448.4,149,448.4z"/>
	<path class="st0" d="M270,510.9L260,488h-32.8l-10,22.8h-2.9l28.3-64.7h2.2l28.2,64.7H270z M258.8,485.4l-15.2-35.1l-15.3,35.1
		H258.8z M238.5,438.4l6.1-8.9h4.2l-8.2,10.5L238.5,438.4z"/>
	<path class="st0" d="M215,510.5l27.9-63.9h1.6l27.8,63.9h-2l-10-22.8h-33.4l-10,22.8H215z M243.7,449.2l-16,36.6h31.8L243.7,449.2z
		 M240.5,439.4l-1.4-1.1l5.8-8.4h3.1L240.5,439.4z"/>
	<path class="st0" d="M304.2,511.3c-18.3,0-30.6-17-30.6-32.8c0-15.8,11.3-32.8,29.5-32.8c11.9,0,20,4.6,24.7,14.2l0.2,0.4l-2.5,0.8
		l-0.2-0.3c-4.5-8.4-11.8-12.5-22.3-12.5c-16.6,0-26.8,15.6-26.8,30.1c0,16.3,12.8,30.2,27.9,30.2c7.9,0,20.3-5,22.6-13.1l0-13.3
		h-15v-2.7h17.7v31.3h-2.7v-10.2C320.6,507.6,312.6,511.3,304.2,511.3z"/>
	<path class="st0" d="M329,480.1v30.4h-1.8v-10.9c-6.1,7.2-14.3,11.3-23,11.3c-17.7,0-30.1-16.6-30.1-32.4c0-16.6,12-32.4,29-32.4
		c13.2,0,20.3,5.8,24.4,13.9l-1.7,0.5c-4.9-9-12.8-12.7-22.7-12.7c-16.8,0-27.3,15.6-27.3,30.6c0,16,12.6,30.6,28.3,30.6
		c8.3,0,20.7-5.2,23-13.4v-13.9h-15v-1.8H329z"/>
	<path class="st0" d="M366.8,512.2c-23.1,0-26.6-20.6-26.6-32.8v-33.3h2.7v33.3c0,13.8,4.2,30.1,23.9,30.1
		c20.8,0,23.9-18.9,23.9-30.1v-33.3h2.7v33.3C393.3,491.7,389.9,512.2,366.8,512.2z"/>
	<path class="st0" d="M391.1,479.4v-32.8h1.8v32.8c0,16.9-6.5,32.4-26.1,32.4c-20.2,0-26.2-16.4-26.2-32.4v-32.8h1.8v32.8
		c0,15.5,5.4,30.6,24.4,30.6C385.9,510,391.1,494.3,391.1,479.4z"/>
	<path class="st0" d="M456.3,510.9l-10-22.8h-32.8l-10,22.8h-2.9l28.3-64.7h2.2l28.2,64.7H456.3z M445.2,485.4L430,450.3l-15.3,35.1
		H445.2z"/>
	<path class="st0" d="M401.3,510.5l27.9-63.9h1.6l27.8,63.9h-2l-10-22.8h-33.4l-10,22.8H401.3z M430,449.2l-16,36.6h31.8L430,449.2z
		"/>
</g>
<g>
	
		<linearGradient id="SVGID_5_" gradientUnits="userSpaceOnUse" x1="577.5879" y1="57.4634" x2="574.4664" y2="86.4075" gradientTransform="matrix(0.3399 0.9405 0.9405 -0.3399 -68.9636 -62.0025)">
		<stop  offset="0" style="stop-color:#70CEE9"/>
		<stop  offset="0.2485" style="stop-color:#6FCAE7"/>
		<stop  offset="0.4356" style="stop-color:#68C2E3"/>
		<stop  offset="0.6027" style="stop-color:#5CB6DD"/>
		<stop  offset="0.758" style="stop-color:#4CA5D5"/>
		<stop  offset="0.9038" style="stop-color:#3491CB"/>
		<stop  offset="1" style="stop-color:#1C82C3"/>
		<stop  offset="1" style="stop-color:#33469D"/>
	</linearGradient>
	<path class="st5" d="M187.4,451.8c1.9-6.6,4.5-10.1,10.1-12.3c3.8-1.5,7.5-0.3,8.8,3.5c1.3,4.1-1.9,7.4-5,9.8
		c-4.8,3.7-12.4,12.6-12.7,19.7C186.8,466,185.5,458.4,187.4,451.8z"/>
	
		<linearGradient id="SVGID_6_" gradientUnits="userSpaceOnUse" x1="145.3228" y1="91.8242" x2="167.1572" y2="91.8242" gradientTransform="matrix(-0.1908 -0.9816 0.9816 -0.1908 133.9762 623.1035)">
		<stop  offset="0" style="stop-color:#FFFFFF;stop-opacity:0.8067"/>
		<stop  offset="1" style="stop-color:#FFFFFF;stop-opacity:0.1"/>
	</linearGradient>
	<path class="st6" d="M200.9,440c-3,2.4-7.1,5.9-9.5,11.3c-2.4,5.3-3.1,9.8-3.7,13.3c-0.7-4.8-0.8-9,0.2-12.5
		c1.9-6.5,4.7-9.6,9.8-11.5C198.8,440.1,199.9,440,200.9,440z"/>
</g>
<g>
	<path class="st0" d="M456.1,144.1c-4.2-4.1-11-4.1-15.2,0.1l-29,29.5L373,147.8c0,0,0,0-0.1,0l-4.2-2.8l-5-3.3c0,0,0,0-0.1,0
		L322,113.9c-3.9-2.6-9-2.4-12.6,0.6l-21.9,17.6c-4.6,3.7-5.4,10.5-1.7,15.1c3.7,4.6,10.5,5.4,15.1,1.7l15.8-12.7l38.1,25.3l0.2,0.2
		l-17.2,36.3c-2.6,4.2-12.2,16.3-27.6,4.2c-3.3-3.7-5.7-8.3-6.8-13.6c-2.1-9.9,0.9-19.7,7.2-26.1h-1.5l0.5-0.2l-40.5-9.5
		c0,0,0.2,10.4,10.2,16.9c-1.6,7.6-1.7,15.8,0,24c5.9,27.9,30.7,46.7,56.6,43.9c1.6-0.2,3.1-0.4,4.7-0.7c14.2-3,28.5,7,31.7,22.3
		c1.6,7.4-1.8,17.9-5.2,23.9l40.5,9.5c0,0-0.2-10.9-10.8-17.3c1.5-9.8,1.7-21.9,0.1-29.8c-3.7-17.5-13.5-31-27.2-38.1l14.5-26.2
		l23.2,15.4c1.8,1.2,3.9,1.8,5.9,1.8c2.8,0,5.6-1.1,7.7-3.2l35.2-35.8C460.3,155.1,460.3,148.3,456.1,144.1z"/>
	<path class="st0" d="M392.6,144.8c19.6,0,35.5-15.9,35.5-35.5c0-19.6-15.9-35.5-35.5-35.5c-19.6,0-35.5,15.9-35.5,35.5
		C357.1,128.9,373,144.8,392.6,144.8z"/>
</g>
<linearGradient id="SVGID_7_" gradientUnits="userSpaceOnUse" x1="71.5259" y1="460.6094" x2="20.9617" y2="608.2028" gradientTransform="matrix(-0.9704 -0.2415 0.2415 -0.9704 124.1848 750.1864)">
	<stop  offset="0" style="stop-color:#70CEE9"/>
	<stop  offset="0.2485" style="stop-color:#6FCAE7"/>
	<stop  offset="0.4356" style="stop-color:#68C2E3"/>
	<stop  offset="0.6027" style="stop-color:#5CB6DD"/>
	<stop  offset="0.758" style="stop-color:#4CA5D5"/>
	<stop  offset="0.9038" style="stop-color:#3491CB"/>
	<stop  offset="1" style="stop-color:#1C82C3"/>
	<stop  offset="1" style="stop-color:#33469D"/>
</linearGradient>
<path class="st7" d="M230.4,231.1c13.6-16.1,44.8-65.6,23.2-84.1c-13.2-11.3-21.7,3.3-26,14.1c-6.6,16.3-16.4,45-25.2,60.3
	c-16.8,29.3-40,55.8-70.6,71.1C171.3,275.5,201.1,265.8,230.4,231.1z"/>
<linearGradient id="SVGID_8_" gradientUnits="userSpaceOnUse" x1="94.022" y1="458.1064" x2="63.2737" y2="570.1675" gradientTransform="matrix(-0.9704 -0.2415 0.2415 -0.9704 124.1848 750.1864)">
	<stop  offset="0" style="stop-color:#70CEE9"/>
	<stop  offset="0.2485" style="stop-color:#6FCAE7"/>
	<stop  offset="0.4356" style="stop-color:#68C2E3"/>
	<stop  offset="0.6027" style="stop-color:#5CB6DD"/>
	<stop  offset="0.758" style="stop-color:#4CA5D5"/>
	<stop  offset="0.9038" style="stop-color:#3491CB"/>
	<stop  offset="1" style="stop-color:#1C82C3"/>
	<stop  offset="1" style="stop-color:#33469D"/>
</linearGradient>
<path class="st8" d="M192.1,231.8c10.1-15.2,17.1-34.6,1.4-43.7c-25.5-14.9-32.9,46.3-36.7,58.5c-5,15.7-11.2,32.1-28.8,43.5
	C128.7,290.3,170.2,264.6,192.1,231.8z"/>
<linearGradient id="SVGID_9_" gradientUnits="userSpaceOnUse" x1="68.3145" y1="458.418" x2="-21.8805" y2="502.1487" gradientTransform="matrix(-0.9704 -0.2415 0.2415 -0.9704 124.1848 750.1864)">
	<stop  offset="0" style="stop-color:#70CEE9"/>
	<stop  offset="0.2485" style="stop-color:#6FCAE7"/>
	<stop  offset="0.4356" style="stop-color:#68C2E3"/>
	<stop  offset="0.6027" style="stop-color:#5CB6DD"/>
	<stop  offset="0.758" style="stop-color:#4CA5D5"/>
	<stop  offset="0.9038" style="stop-color:#3491CB"/>
	<stop  offset="1" style="stop-color:#1C82C3"/>
	<stop  offset="1" style="stop-color:#33469D"/>
</linearGradient>
<path class="st9" d="M276.4,278.1c2.6-5.6,2-12.1-4-17.5c-18.6-16.4-54-4-72.6,5.4c-11.8,6-25.8,13.3-39.6,19.8
	c19.6-2.4,39-3.1,58.6,0.2c13.8,2.3,30.6,8.5,44.5,3.7C269,287.8,274.1,283.3,276.4,278.1z"/>
<linearGradient id="SVGID_10_" gradientUnits="userSpaceOnUse" x1="50.3765" y1="597.4961" x2="84.7847" y2="597.4961" gradientTransform="matrix(-0.9704 -0.2415 0.2415 -0.9704 124.1848 750.1864)">
	<stop  offset="0" style="stop-color:#70CEE9"/>
	<stop  offset="0.2485" style="stop-color:#6FCAE7"/>
	<stop  offset="0.4356" style="stop-color:#68C2E3"/>
	<stop  offset="0.6027" style="stop-color:#5CB6DD"/>
	<stop  offset="0.758" style="stop-color:#4CA5D5"/>
	<stop  offset="0.9038" style="stop-color:#3491CB"/>
	<stop  offset="1" style="stop-color:#1C82C3"/>
	<stop  offset="1" style="stop-color:#33469D"/>
</linearGradient>
<path class="st12" d="M202,141.6c7.3,14,8.1,24.1,8.9,40.2l-2.7,15.2c6.5-18.1,13.2-38.9,11.6-58.4c-0.7-9-10-34.5-23.4-22.9
	C188.3,122.8,198.3,134.5,202,141.6z"/>
<linearGradient id="SVGID_11_" gradientUnits="userSpaceOnUse" x1="28.394" y1="653.0488" x2="51.2959" y2="653.0488" gradientTransform="matrix(-0.9704 -0.2415 0.2415 -0.9704 124.1848 750.1864)">
	<stop  offset="0" style="stop-color:#70CEE9"/>
	<stop  offset="0.2485" style="stop-color:#6FCAE7"/>
	<stop  offset="0.4356" style="stop-color:#68C2E3"/>
	<stop  offset="0.6027" style="stop-color:#5CB6DD"/>
	<stop  offset="0.758" style="stop-color:#4CA5D5"/>
	<stop  offset="0.9038" style="stop-color:#3491CB"/>
	<stop  offset="1" style="stop-color:#1C82C3"/>
	<stop  offset="1" style="stop-color:#33469D"/>
</linearGradient>
<path class="st13" d="M232.7,119.8c0,0,1,9.6,1,9.6c3.3-12.6,14.5-18.4,19.3-24.2c7.4-9,9.2-26.2-8.7-19.5
	C231,90.6,231.5,108.4,232.7,119.8z"/>
<linearGradient id="SVGID_12_" gradientUnits="userSpaceOnUse" x1="-28.5996" y1="496.1592" x2="45.0845" y2="496.1592" gradientTransform="matrix(-0.9704 -0.2415 0.2415 -0.9704 124.1848 750.1864)">
	<stop  offset="0" style="stop-color:#FFFFFF;stop-opacity:0.8067"/>
	<stop  offset="1" style="stop-color:#FFFFFF;stop-opacity:0.1"/>
</linearGradient>
<path class="st14" d="M273.9,267.2c0,0-21.2-15.7-77.1,4.8C196.7,272,248,238.2,273.9,267.2z"/>
<linearGradient id="SVGID_13_" gradientUnits="userSpaceOnUse" x1="15.9473" y1="600.7031" x2="48.1382" y2="600.7031" gradientTransform="matrix(0.7921 0.1479 0.1256 -0.8812 132.5747 695.7019)">
	<stop  offset="0" style="stop-color:#FFFFFF;stop-opacity:0.8067"/>
	<stop  offset="1" style="stop-color:#FFFFFF;stop-opacity:0.1"/>
</linearGradient>
<path class="st15" d="M238.4,159.2c-3.6,4.4-10.5,13.3-21.6,36.4c10.9-27.2,16.4-53.5,29.3-49.7
	C254.9,148.5,245.9,149.9,238.4,159.2z"/>
<linearGradient id="SVGID_14_" gradientUnits="userSpaceOnUse" x1="-39.4878" y1="553.1514" x2="-12.6011" y2="553.1514" gradientTransform="matrix(0.8041 5.700000e-002 7.140000e-002 -0.821 155.8242 668.5218)">
	<stop  offset="0" style="stop-color:#FFFFFF;stop-opacity:0.8067"/>
	<stop  offset="1" style="stop-color:#FFFFFF;stop-opacity:0.1"/>
</linearGradient>
<path class="st16" d="M178.7,197.3c-4.3,5.2-8.9,10.7-17.4,40.5c3.9-23.5,12-51.8,25.2-49.8C189.4,188.4,184.2,190.7,178.7,197.3z"
	/>
<linearGradient id="SVGID_15_" gradientUnits="userSpaceOnUse" x1="54.0991" y1="615.9648" x2="76.7104" y2="615.9648" gradientTransform="matrix(-0.9704 -0.2415 0.2415 -0.9704 124.1848 750.1864)">
	<stop  offset="0" style="stop-color:#FFFFFF;stop-opacity:0.8067"/>
	<stop  offset="1" style="stop-color:#FFFFFF;stop-opacity:0.1"/>
</linearGradient>
<path class="st17" d="M215.6,159c0,0,2.9-28.9-12.2-44.6C203.4,114.3,224.9,122.5,215.6,159z"/>
<linearGradient id="SVGID_16_" gradientUnits="userSpaceOnUse" x1="106.0381" y1="45.0513" x2="86.1127" y2="23.1978" gradientTransform="matrix(-0.6738 0.739 -0.739 -0.6738 347.3549 178.8997)">
	<stop  offset="0" style="stop-color:#70CEE9"/>
	<stop  offset="0.2485" style="stop-color:#6FCAE7"/>
	<stop  offset="0.4356" style="stop-color:#68C2E3"/>
	<stop  offset="0.6027" style="stop-color:#5CB6DD"/>
	<stop  offset="0.758" style="stop-color:#4CA5D5"/>
	<stop  offset="0.9038" style="stop-color:#3491CB"/>
	<stop  offset="1" style="stop-color:#1C82C3"/>
	<stop  offset="1" style="stop-color:#33469D"/>
</linearGradient>
<path class="st18" d="M261,232.1c6.8-0.6,14.5-1.1,12.6-10.5c-2-9.8-13-8.6-19.3-4.4c-7,4.6-10.3,14.5-8.5,22.5
	C250,236,254.7,232.7,261,232.1z"/>
<linearGradient id="SVGID_17_" gradientUnits="userSpaceOnUse" x1="93.8848" y1="20.1128" x2="89.663" y2="29.0086" gradientTransform="matrix(-0.577 0.8168 -0.8168 -0.577 330.0006 163.5365)">
	<stop  offset="0" style="stop-color:#FFFFFF;stop-opacity:0.8067"/>
	<stop  offset="1" style="stop-color:#FFFFFF;stop-opacity:0.1"/>
</linearGradient>
<path class="st19" d="M269.9,218.4c0,0-20.8-4.7-22.9,17.5c0,0-1.9-12.9,9.9-18.1C268.8,212.7,269.9,218.4,269.9,218.4z"/>
<linearGradient id="SVGID_18_" gradientUnits="userSpaceOnUse" x1="481.0244" y1="205.5947" x2="505.2061" y2="205.5947" gradientTransform="matrix(-0.1908 -0.9816 0.9816 -0.1908 133.9762 623.1035)">
	<stop  offset="0" style="stop-color:#FFFFFF;stop-opacity:0.8067"/>
	<stop  offset="1" style="stop-color:#FFFFFF;stop-opacity:0.1"/>
</linearGradient>
<path class="st20" d="M249,86.3c-3.3,2.7-7.8,6.6-10.5,12.5c-2.7,5.9-3.5,10.9-4.1,14.8c-0.7-5.3-0.8-10,0.3-13.9
	c2.1-7.3,5.2-10.6,10.8-12.8C246.7,86.5,247.9,86.3,249,86.3z"/>
</svg>
